/* XPM */
static char *wq3_crossed16[] = {
/* columns rows colors chars-per-pixel */
"16 16 125 2",
"   c #000000",
".  c #000101",
"X  c #010000",
"o  c #010100",
"O  c #010101",
"+  c #020202",
"@  c #040000",
"#  c #060000",
"$  c #040404",
"%  c #040607",
"&  c #060606",
"*  c #080000",
"=  c #080200",
"-  c #0A0100",
";  c #0A0200",
":  c #0D0501",
">  c #0F0502",
",  c #0C0906",
"<  c #080909",
"1  c #090909",
"2  c #0B0B0A",
"3  c #0D0C0B",
"4  c #080E11",
"5  c #130300",
"6  c #110702",
"7  c #130500",
"8  c #150702",
"9  c #120A06",
"0  c #1A0400",
"q  c #1B0B02",
"w  c #1A0D04",
"e  c #101011",
"r  c #121112",
"t  c #121413",
"y  c #141312",
"u  c #151716",
"i  c #141F1F",
"p  c #181E22",
"a  c #1E201F",
"s  c #182021",
"d  c #1F2321",
"f  c #250B03",
"g  c #330B00",
"h  c #321505",
"j  c #38150C",
"k  c #3B170C",
"l  c #3F1808",
"z  c #361E16",
"x  c #20201F",
"c  c #22201D",
"v  c #342217",
"b  c #222424",
"n  c #222B2B",
"m  c #272828",
"M  c #272929",
"N  c #2C2B2A",
"B  c #2C2C2C",
"V  c #262E33",
"C  c #2B3331",
"Z  c #393939",
"A  c #3F3E3E",
"S  c #3E3D40",
"D  c #374044",
"F  c #394043",
"G  c #3F4146",
"H  c #3D494F",
"J  c #47280E",
"K  c #402218",
"L  c #4C271A",
"P  c #5E361E",
"I  c #573021",
"U  c #593224",
"Y  c #5E3C24",
"T  c #7B4524",
"R  c #424041",
"E  c #424243",
"W  c #404145",
"Q  c #414445",
"!  c #454543",
"~  c #40414C",
"^  c #45464C",
"/  c #4A4D4E",
"(  c #494A50",
")  c #4C4E51",
"_  c #4E4E56",
"`  c #4B5253",
"'  c #495156",
"]  c #4F5055",
"[  c #504542",
"{  c #564849",
"}  c #575454",
"|  c #595858",
" . c #5A5B5B",
".. c #5F6466",
"X. c #5B676A",
"o. c #705240",
"O. c #61605F",
"+. c #656465",
"@. c #646566",
"#. c #60686D",
"$. c #6B7274",
"%. c #717072",
"&. c #7A7775",
"*. c #7B7874",
"=. c #7F7A71",
"-. c #7A7878",
";. c #787981",
":. c #93634A",
">. c #B37A53",
",. c #A57962",
"<. c #818389",
"1. c #848C91",
"2. c #908B85",
"3. c #908D86",
"4. c #908F8D",
"5. c #A29F9B",
"6. c #AFACAA",
"7. c #B2B0AD",
"8. c #B4B3B4",
"9. c #BBBBBA",
"0. c #BEBCBC",
"q. c #C0BFC0",
"w. c #C3C2C2",
"e. c #C5C3C3",
"r. c None",
/* pixels */
"r.r.r.r.r.4 p   r.r.r.r.r.r.r.r.",
"r.r.r.r.    s V   < b $ r.r.r.r.",
"r.r.r.r.r.    n D  .7.A r.r.r.r.",
"r.r.r.r.r.r.  B ` $. .$ r.r.r.r.",
"r.r.r.r.3 N -.0.@...' < r.r.r.r.",
"r.r.  ! 6.e.4.B   / 1.H $ r.r.r.",
"r.  *.9.5.3.O.r.  ^ C X.#.M r.r.",
"r %.&.=.3.w.E r.  r / p D @.Z r.",
"    S 8.q.E 3 r.r.  M Q G G ) 1 ",
"r.r.[ { } c y r.r.  u a <.G _   ",
"r.: U z       r.r.  t b b ;.]   ",
"r.7 I l : r.r.r.r.r.    9 :.o.  ",
"r.# k L g ; r.r.r.r.  w T >.J   ",
"r.  f v k 5 r.r.r.r.6 P ,.Y w   ",
"r.  ; f 6   r.r.r.r.  , v h   r.",
"r.r.                    8 ;   r."
};
