/* XPM */
static char *wq3_crossed48[] = {
/* columns rows colors chars-per-pixel */
"48 48 257 2",
"   c #000000",
".  c #050A0B",
"X  c #0C0301",
"o  c #0C0D0D",
"O  c #060807",
"+  c #050F12",
"@  c #0E0F10",
"#  c #0A100F",
"$  c #0C1312",
"%  c #0B1616",
"&  c #130300",
"*  c #150902",
"=  c #120D0B",
"-  c #1B0500",
";  c #1D0A03",
":  c #12110F",
">  c #19120C",
",  c #141414",
"<  c #141619",
"1  c #141A1C",
"2  c #1B1D1C",
"3  c #151916",
"4  c #191B20",
"5  c #171D20",
"6  c #1B221F",
"7  c #13221F",
"8  c #1D2424",
"9  c #1A272B",
"0  c #1B2625",
"q  c #1F2E36",
"w  c #230500",
"e  c #230B02",
"r  c #2A0700",
"t  c #2C0B01",
"y  c #241305",
"u  c #2C1204",
"i  c #28160D",
"p  c #2A150C",
"a  c #221E1A",
"s  c #330C01",
"d  c #390E00",
"f  c #331303",
"g  c #34160B",
"h  c #33190B",
"j  c #3C1404",
"k  c #3D160C",
"l  c #3B1907",
"z  c #391F10",
"x  c #25211F",
"c  c #3D221C",
"v  c #382619",
"b  c #242424",
"n  c #22242A",
"m  c #232827",
"M  c #252B2B",
"N  c #2A2B2C",
"B  c #2D2D33",
"V  c #2E2E38",
"C  c #242D34",
"Z  c #2B302E",
"A  c #2C3332",
"S  c #2C3538",
"D  c #263035",
"F  c #3A2721",
"G  c #34322E",
"H  c #343437",
"J  c #36363C",
"K  c #343A3B",
"L  c #393B3C",
"P  c #363836",
"I  c #293943",
"U  c #333C42",
"Y  c #3A3B45",
"T  c #393A46",
"R  c #354342",
"E  c #33414B",
"W  c #3D4342",
"Q  c #3C464C",
"!  c #3E4C53",
"~  c #401402",
"^  c #411807",
"/  c #441B0A",
"(  c #4C1E0C",
")  c #431E11",
"_  c #45220B",
"`  c #4A220C",
"'  c #4A2106",
"]  c #442315",
"[  c #482617",
"{  c #48301F",
"}  c #53240D",
"|  c #592E0D",
" . c #532A14",
".. c #552A16",
"X. c #5D3519",
"o. c #452A23",
"O. c #493629",
"+. c #573529",
"@. c #573D36",
"#. c #6B3513",
"$. c #663717",
"%. c #743A15",
"&. c #623623",
"*. c #47433D",
"=. c #5E423E",
"-. c #76411B",
";. c #6C472C",
":. c #644134",
">. c #67483F",
",. c #694838",
"<. c #6E523A",
"1. c #7B4F2A",
"2. c #7A4D39",
"3. c #444345",
"4. c #44464A",
"5. c #424847",
"6. c #424B4C",
"7. c #4D4444",
"8. c #4B4846",
"9. c #4C4B4B",
"0. c #464D54",
"q. c #4C4D53",
"w. c #4B4C58",
"e. c #44504F",
"r. c #465455",
"t. c #455159",
"y. c #4B5254",
"u. c #4E545C",
"i. c #4B5858",
"p. c #534D4C",
"a. c #5B4645",
"s. c #584949",
"d. c #59544D",
"f. c #56524B",
"g. c #515254",
"h. c #53555B",
"j. c #55595B",
"k. c #5B5B5D",
"l. c #5B5554",
"z. c #4E5861",
"x. c #535E62",
"c. c #595A61",
"v. c #595A68",
"b. c #5C6369",
"n. c #586469",
"m. c #624942",
"M. c #625F5B",
"N. c #7E5B49",
"B. c #7D5F53",
"V. c #605E61",
"C. c #65615B",
"Z. c #68635D",
"A. c #636463",
"S. c #63646B",
"D. c #696464",
"F. c #6C6A65",
"G. c #6A6A6B",
"H. c #656A6B",
"J. c #6B6D72",
"K. c #676C76",
"L. c #647179",
"P. c #6D7476",
"I. c #6E767B",
"U. c #657274",
"Y. c #746B62",
"T. c #74716B",
"R. c #7D796E",
"E. c #727374",
"W. c #76767C",
"Q. c #727A7D",
"!. c #787773",
"~. c #79797B",
"^. c #7B7878",
"/. c #757A80",
"(. c #7D7B81",
"). c #7B7E88",
"_. c #7D8487",
"`. c #8E5528",
"'. c #895636",
"]. c #93542D",
"[. c #904E30",
"{. c #9B6033",
"}. c #AF683B",
"|. c #885B48",
" X c #92634B",
".X c #827C74",
"XX c #997868",
"oX c #A16641",
"OX c #C37F55",
"+X c #807F80",
"@X c #88847B",
"#X c #B9835F",
"$X c #BB8F72",
"%X c #CE8759",
"&X c #C18F74",
"*X c #DE9E75",
"=X c #D79B7C",
"-X c #E4986C",
";X c #838384",
":X c #8A8684",
">X c #8B8986",
",X c #8C8C8C",
"<X c #83898C",
"1X c #878890",
"2X c #8C8F94",
"3X c #808292",
"4X c #8E9296",
"5X c #899499",
"6X c #928B84",
"7X c #908F92",
"8X c #949189",
"9X c #949494",
"0X c #939599",
"qX c #999492",
"wX c #9C9895",
"eX c #9B9A9B",
"rX c #97989B",
"tX c #999EA3",
"yX c #94A6AF",
"uX c #A19B96",
"iX c #A09E9B",
"pX c #AAA39A",
"aX c #B1AB9F",
"sX c #A4A3A4",
"dX c #A0A3A9",
"fX c #ADA9A4",
"gX c #ADABAC",
"hX c #ACABB0",
"jX c #B2AFAE",
"kX c #B3B1AF",
"lX c #B8B3AE",
"zX c #B4B3B4",
"xX c #B4B6BA",
"cX c #B9B5B3",
"vX c #BDBCBC",
"bX c #BBBABA",
"nX c #BDBDC2",
"mX c #BCC0C3",
"MX c #D6AB8D",
"NX c #C0BEBC",
"BX c #E0B098",
"VX c #F2B181",
"CX c #C6C2BC",
"ZX c #C4C3C4",
"AX c #C7C6CA",
"SX c #C9C5C4",
"DX c #CBC9C7",
"FX c #CDCBCB",
"GX c #C8C7C8",
"HX c #CFCFD0",
"JX c #D5D4D4",
"KX c #D0D2E2",
"LX c #E6E6E6",
"PX c #F6F5F5",
"IX c #FDFDFD",
"UX c #F7F6F8",
"YX c None",
/* pixels */
"YXYXYXYXYXYXYXYXYXYXYXYXYXYXYX  % 1 4   YXYXYXYXYXYXYXYXYXYXYXYXYXYXYXYXYXYXYXYXYXYXYXYXYXYXYXYX",
"YXYXYXYXYXYXYXYXYXYXYXYXYXYXYX  + 9 9 q .   YXYXYXYXYXYXYXYXYXYXYXYXYXYXYXYXYXYXYXYXYXYXYXYXYXYX",
"YXYXYXYXYXYXYXYXYXYXYXYXYXYXYX  O % V C I . YXYXYXYXYXYXYXYXYXYXYXYXYXYXYXYXYXYXYXYXYXYXYXYXYXYX",
"YXYXYXYXYXYXYXYXYXYXYXYXYXYX      . 1 S S U o YXYXYXYXYXYXYXYXYXYXYXYXYXYXYXYXYXYXYXYXYXYXYXYXYX",
"YXYXYXYXYXYXYXYXYXYXYXYXYXYXYX      . 0 K U E $ YXYXYXYXYX            YXYXYXYXYXYXYXYXYXYXYXYXYX",
"YXYXYXYXYXYXYXYXYXYXYXYXYXYXYXYX      . 0 U Q ! <   YXYX  L ,X8.p.H   YXYXYXYXYXYXYXYXYXYXYXYXYX",
"YXYXYXYXYXYXYXYXYXYXYXYXYXYXYXYXYX      . 9 R r.! 2   YX  fXJXjXjXNX8.YXYXYXYXYXYXYXYXYXYXYXYXYX",
"YXYXYXYXYXYXYXYXYXYXYXYXYXYXYXYXYXYX      # M Q x.! 8   b ,XzXbXfXA.b YXYXYXYXYXYXYXYXYXYXYXYXYX",
"YXYXYXYXYXYXYXYXYXYXYXYXYXYXYXYXYXYXYX      o D 6.H.t.k.zXjXlX:XsXsX  YXYXYXYXYXYXYXYXYXYXYXYXYX",
"YXYXYXYXYXYXYXYXYXYXYXYXYXYXYXYXYXYXYXYX      o D ! K.0.4XzXfXzXrXm   YXYXYXYXYXYXYXYXYXYXYXYXYX",
"YXYXYXYXYXYXYXYXYXYXYXYXYXYXYXYXYXYXYXYXYX    N 8 A e.P.r.,XsXy.    YXYXYXYXYXYXYXYXYXYXYXYXYXYX",
"YXYXYXYXYXYXYXYXYXYXYXYXYXYXYXYXYXYXYXYXYX3 +XmXsXA Q.e.W.i.6.    YXYXYXYXYXYXYXYXYXYXYXYXYXYXYX",
"YXYXYXYXYXYXYXYXYXYXYXYXYXYXYXYXYXYXYXO G.zXvXcXDX>X3.<Xr.I.z.6.  YXYXYXYXYXYXYXYXYXYXYXYXYXYXYX",
"YXYXYXYXYXYXYXYXYXYXYXYXYXYXYXYXYX  p.sXnXCXDXSXvXsX< 4.4Xr.Q.t.y.  YXYXYXYXYXYXYXYXYXYXYXYXYXYX",
"YXYXYXYXYXYXYXYXYXYXYXYXYX  C.qXj.qXzXzXbXDXxXgXG.,   @ j.dXi.Q.0.r.  YXYXYXYXYXYXYXYXYXYXYXYXYX",
"YXYXYXYXYXYXYXYXYXYXYX  8.fXFXDXJXGXzXDXcXsX^.N         g.KXxXr.L.! t.  YXYXYXYXYXYXYXYXYXYXYXYX",
"YXYXYXYXYXYXYXYXYXYXa 8XjXcXSXNXGXcX@XjX,X3.    YXYX    n q.dXnXr.x.I E O YXYXYXYXYXYXYXYXYXYXYX",
"YXYXYXYXYXYXYXYXo !.zX2XcXZXzXJXJXqXeXA.,     YXYXYXYXk.j.h.4X0X5Xr._.E q .   YXYXYXYXYXYXYXYXYX",
"YXYXYXYXYXYX  p.zXrXzXIXDXDXFXjXiXuXZXE.  YXYXYXYXYX  S.q.L v.6.e.n.r.<XR z.U   YXYXYXYXYXYXYXYX",
"YXYXYXYXYXYXD.uXCXeXPXPX,X!.iXwX6X.XF.qX  YXYXYXYXYX  4 P.w.K 3 6 y.U.i.Q._.tXK   YXYXYXYXYXYXYX",
"YXYXYXYXYXO M.C.lXCXwXG.8X.X6X@XY.F.vXG.O YXYXYXYXYX  . h.c.N $ % 0 P.yXn.b.W.bXJ.O YXYXYXYXYXYX",
"YXYX    . ;X>X3.Y.pXfXR.@XT.Y.Z.sXIXHXE.  YXYXYXYXYX    , L H.5.$ % 7 x.U./.6.v.gXK.o YXYXYXYXYX",
"YX  ;XHXLXUX:X,XC.@X6X.XR.C.6XLXIXnX+Xg.  YXYXYXYXYXYX  O B q.;X5.$ $ % 0 i.4.M g.6X4XN YXYXYXYX",
"YX  2 B H k.gXG.T.*.d.C.Z.GXIXIXzX~.3.  YXYXYXYXYXYXYX    o H 3.k.0 + + + 1 2 : 9.gXzX>XYXYXYXYX",
"YX          J (.,XLXFXAXPXLXsXjXV.J   YXYXYXYXYXYXYXYXYX    o H 5.5.0 . $ $   L A.9XG.A.  YXYXYX",
"YXYXYXYXYX    n ^.7XzXAXIXqX7X^., d.: YXYXYXYXYXYXYXYXYXYX    2 H.g.l.1 N H h.T C L v.q.q.m   YX",
"YXYXYXYXYXYX    h.hXp.JXIXsXE.<   : s.: YXYXYXYXYXYXYXYXYX  8 Z : M G.0XtX1Xh.Y n 2 K.k.B N O YX",
"YXYXYXYXYXYX  l.AXl.s.V.rX+X<       P N YXYXYXYXYXYXYXYXYXO Z     O Z ~.AX/.Y T V 4 0..XV   YXYX",
"YXYXYXYXYXYX  iXa.s.s.7.D.!.8.G   b *.X YXYXYXYXYXYXYXYXYX  3.      O W ).nX+Xu.T V C W.c.    YX",
"YXYXYXYXYXYX= ) =.a.s.F a 3.9.f.d.b     YXYXYXYXYXYXYXYXYX  P b YX    b /./.+X+Xv.T I V.3.    YX",
"YXYXYXYXYX  ] [ =.m.F i X     = o     YXYXYXYXYXYXYXYXYXYX  O W 6 N H M < J w.J.S.Y n w.q.YXYXYX",
"YXYXYXYX  g ....m.o.h ;             YXYXYXYXYXYXYXYXYXYXYX    O L N K m < 4 T v.+X/.G.4.W   YXYX",
"YXYXYXYXX ~ } &.>.) p ;   YXYXYXYXYXYXYXYXYXYXYXYXYXYXYXYXYX    O o O       N 4XtXxXW.j.h.  YXYX",
"YXYXYXYX  j } +.@.` g t   YXYXYXYXYXYXYXYXYXYXYXYXYXYXYXYXYXYX              a m.|.XX|.Y.+XYXYXYX",
"YXYXYXYX  d ( +.:.} ^ d & YXYXYXYXYXYXYXYXYXYXYXYXYXYXYXYXYXYXYX            p X.|. Xm.2.F YXYXYX",
"YXYXYXYXX r ~ [ >.( / ~ d &   YXYXYXYXYXYXYXYXYXYXYXYXYXYXYXYXYXYXYXYXYXYXX ( [.-X%X{.1.v   YXYX",
"YXYXYXYX  - d ^ @.+./ ~ d s &   YXYXYXYXYXYXYXYXYXYXYXYXYXYXYXYXYXYXYXYX* | %.%X*X{.`.-.p   YXYX",
"YXYXYXYX  & r d ) =.) j j s s &   YXYXYXYXYXYXYXYXYXYXYXYXYXYXYXYXYX  ; #.-.}.VX#X{.-._ *   YXYX",
"YXYXYXYX  X - r k +.+.) ~ d s r -   YXYXYXYXYXYXYXYXYXYXYXYXYX  X ; _ #.#.[.-X$X<.`.| h X   YXYX",
"YXYXYXYX    X w g ) @.+.) ~ d r w X YXYXYXYXYXYXYXYXYXYXYXYX  * h  .$.$.{.MXMXd.<.#.' u     YXYX",
"YXYXYXYXYX    - r g o.o.) k k r &   YXYXYXYXYXYXYXYXYXYXYXYX  X h [ $.'.&XBXXX*.;.| l *     YXYX",
"YXYXYXYXYX    & r r g z o.g e &     YXYXYXYXYXYXYXYXYXYXYXYX  X   y ;.<.|.N.X.+.X._ u     YXYXYX",
"YXYXYXYXYX    X - w g g g e X       YXYXYXYXYXYXYXYXYXYXYXYX        > F O.F { _ } f *     YXYXYX",
"YXYXYXYXYXYX    & w t u * X       YXYXYXYXYXYXYXYXYXYXYXYXYX          > 6 v z / f e       YXYXYX",
"YXYXYXYXYXYX    & & w ;       YXYXYXYXYXYXYXYXYXYXYXYXYXYXYXYX        X > i g u e X     YXYXYXYX",
"YXYXYXYXYXYX    X & X       YXYXYXYXYXYXYXYXYXYXYXYXYXYXYXYXYXYX        X ; e ; *       YXYXYXYX",
"YXYXYXYXYXYXYX            YXYXYXYXYXYXYXYXYXYXYXYXYXYXYXYXYXYXYXYX      & * - *       YXYXYXYXYX",
"YXYXYXYXYXYXYX                                                          X * *           YXYXYXYX"
};
